<?xml version="1.0" encoding="utf-8"?>
<!-- Generator: Adobe Illustrator 21.1.0, SVG Export Plug-In . SVG Version: 6.00 Build 0)  -->
 <svg version="1.1" id="Calque_1" xmlns="http://www.w3.org/2000/svg" xmlns:xlink="http://www.w3.org/1999/xlink" x="0px" y="0px"
    viewBox="0 0 1241 522.9" style="enable-background:new 0 0 1241 522.9;" xml:space="preserve">
   
        <!-- STYLES -->
        <style type="text/css">
            <!-- Bubbles -->
            .st0{fill:none;stroke:#FFFFFF;stroke-width:1;stroke-miterlimit:10;}
            .st1{fill:none;stroke:#FFFFFF;stroke-width:1;stroke-linecap:round;stroke-linejoin:round;stroke-miterlimit:10;}
            <!-- Bubble trajectories -->
            .st2{fill:none;stroke:#D62B2B;stroke-miterlimit:10;}
            .st3{fill:none;stroke:#62D16F;stroke-miterlimit:10;}
            .st4{fill:none;stroke:#D3CB2D;stroke-miterlimit:10;}
            .st5{fill:none;stroke:#2F8BD1;stroke-miterlimit:10;}
            <!-- 'Muse' title -->
            .st6{clip-path:url(#SVGID_2_);fill:#FFFFFF;}
	        .st7{clip-path:url(#SVGID_2_);fill:#0E0E11;}
        </style>

        <!-- DEFS (NOT RENDERED) -->
        <defs>
            <!-- 'Muse' title -->
            <rect id="SVGID_1_" x="1.9" y="95" width="808" height="229.4"/>
            <!-- Bubble trajectories -->
            <path id="path1" class="st2" d="M1020.5,375.8c29.4-23,95.3-56.6,105.3-120.6c7.3-47-31.3-118.5-28-160C1100,57.4,1134,0,1134,0"/>
            <path id="path2" class="st3" d="M983,438c107-33.8,145.6-72,183-115.1c61.3-70.7,66.5-120.7,70-152.7c8.7-78-7.5-125.7-17-170.2"/>
            <path id="path3" class="st4" d="M1032,490.3c169.8-121.1,177.3-199.6,171.3-276.1C1198,160.2,1153.2,93,1195,0"/>
            <path id="path4" class="st5" d="M1003.7,516.9c4.8-65.8,25.9-120,63.9-150.6c47.2-38.1,91.9-44.1,127.1-142.1c14.7-52.7,8-114.7-2.7-141.3c-9.1-32.1-30-82.9-30-82.9"/>
        </defs>
        
        <!-- ANIMATIONS -->
        <animateMotion  accumulate="none" additive="replace" begin="0s" calcMode="paced" dur="16s" fill="remove" repeatCount="indefinite" restart="always" xlink:href="#bubble1g">
            <mpath  xlink:href="#path1"></mpath>
        </animateMotion>
        <animateMotion  accumulate="none" additive="replace" begin="0s" calcMode="paced" dur="16s" fill="remove" repeatCount="indefinite" restart="always" xlink:href="#bubble2g">
            <mpath  xlink:href="#path2"></mpath>
        </animateMotion>
        <animateMotion  accumulate="none" additive="replace" begin="0s" calcMode="paced" dur="16s" fill="remove" repeatCount="indefinite" restart="always" xlink:href="#bubble3g">
            <mpath  xlink:href="#path3"></mpath>
        </animateMotion>
        <animateMotion  accumulate="none" additive="replace" begin="0s" calcMode="paced" dur="16s" fill="remove" repeatCount="indefinite" restart="always" xlink:href="#bubble4g">
            <mpath  xlink:href="#path4"></mpath>
        </animateMotion>
        
        <!-- GRAPHICAL OBJECTS (RENDERED) -->
            <!-- Waves -->
        <path class="st0" d="M653.8,466.3c8.9,0,8.9,6.3,17.8,6.3c8.9,0,8.9-6.3,17.8-6.3c8.9,0,8.9,6.3,17.8,6.3s8.9-6.3,17.8-6.3
	c8.9,0,8.9,6.3,17.8,6.3c8.9,0,8.9-6.3,17.7-6.3c8.9,0,8.9,6.3,17.8,6.3c8.9,0,8.9-6.3,17.8-6.3c8.9,0,8.9,6.3,17.8,6.3
	s8.9-6.3,17.8-6.3s8.9,6.3,17.8,6.3 M653.8,494.5c12.6,0,12.6,6.3,25.3,6.3c12.6,0,12.6-6.3,25.3-6.3c12.6,0,12.6,6.3,25.3,6.3
	c12.6,0,12.6-6.3,25.3-6.3c12.6,0,12.6,6.3,25.3,6.3c12.6,0,12.6-6.3,25.3-6.3c12.6,0,12.6,6.3,25.3,6.3c12.6,0,12.6-6.3,25.3-6.3
	c12.6,0,12.6,6.3,25.3,6.3c12.7,0,12.7-6.3,25.3-6.3c12.7,0,12.7,6.3,25.3,6.3 M653.8,438.2c10.7,0,10.7,6.3,21.3,6.3
	c10.7,0,10.7-6.3,21.3-6.3c10.7,0,10.7,6.3,21.3,6.3c10.7,0,10.7-6.3,21.3-6.3c10.7,0,10.7,6.3,21.3,6.3c10.7,0,10.7-6.3,21.3-6.3
	c10.7,0,10.7,6.3,21.3,6.3c10.7,0,10.7-6.3,21.3-6.3c10.7,0,10.7,6.3,21.3,6.3c10.7,0,10.7-6.3,21.4-6.3s10.7,6.3,21.4,6.3
	 M688.6,410c12.8,0,12.8,6.3,25.5,6.3c12.8,0,12.8-6.3,25.5-6.3c12.8,0,12.8,6.3,25.5,6.3c12.8,0,12.8-6.3,25.5-6.3
	c12.8,0,12.8,6.3,25.5,6.3c12.8,0,12.8-6.3,25.5-6.3c12.8,0,12.8,6.3,25.5,6.3c12.8,0,12.8-6.3,25.5-6.3c12.8,0,12.8,6.3,25.6,6.3
	s12.8-6.3,25.6-6.3c12.8,0,12.8,6.3,25.6,6.3 M688.6,381.9c8.5,0,8.5,6.3,17,6.3s8.5-6.3,17-6.3s8.5,6.3,17,6.3s8.5-6.3,17-6.3
	s8.5,6.3,17,6.3s8.5-6.3,17-6.3s8.5,6.3,17,6.3s8.5-6.3,17-6.3s8.5,6.3,17,6.3s8.5-6.3,17-6.3s8.5,6.3,17,6.3"/>
            <!-- Bubbles -->
        <g>
            <g id="bubble2g" transform="translate(-982.9 -437)">
                <ellipse id="bubble2" class="st1" cx="982.9" cy="437" rx="4.3" ry="4.3"/>
            </g>
            <g id="bubble4g" transform="translate(-1004.3 -515.9)">
                <ellipse id="bubble4" class="st1" cx="1004.3" cy="515.9" rx="4.3" ry="4.3"/>
            </g>
            <g id="bubble3g" transform="translate(-1036.3 -490.6)">
                <path id="bubble3" class="st1" d="M1036.3,490.6c0,2.4-1.9,4.3-4.3,4.3s-4.3-1.9-4.3-4.3s1.9-4.3,4.3-4.3
        C1034.4,486.3,1036.3,488.2,1036.3,490.6z"/>
            </g>
            <g id="bubble1g" transform="translate(-1027.1 -375.8)">
                <path id="bubble1" class="st1" d="M1027.1,375.8c0,3.6-2.9,6.6-6.5,6.6s-6.6-2.9-6.6-6.6c0-3.6,2.9-6.6,6.6-6.6
        C1024.1,369.2,1027.1,372.1,1027.1,375.8z"/>
            </g>
        </g>
            <!-- 'Muse' title -->
        <g>
            <clipPath id="SVGID_2_">
                <use xlink:href="#SVGID_1_"  style="overflow:visible;"/>
            </clipPath>
            <path class="st6" d="M240.2,113.8h-34.4c-0.9,0-2.4,0.9-2.7,1.5l-71.1,152.3L57.7,115.3c-0.3-0.6-1.8-1.5-2.7-1.5H20.4
                c-1.8,0-2.7,1.2-2.7,2.4v202.9c0,1.2,0.9,2.4,2.7,2.4h34.1c1.8,0,3-1.2,3-2.4V202.7l56.3,109c0.3,0.6,1.8,1.5,2.7,1.5h32
                c0.6,0,2.1-0.9,2.4-1.5l52.7-106.3v113.8c0,1.2,1.2,2.4,3,2.4h33.8c1.8,0,3-1.2,3-2.4V116.2C243.1,115,242,113.8,240.2,113.8"/>
            <path class="st6" d="M423.9,237.4c0,0.3-0.3,13.6-6.8,26.1c-8,15.1-21.3,22.5-40.9,22.5c-19.6,0-32.9-7.4-40.9-22.5
                c-6.5-12.4-6.8-25.8-6.8-25.8v-67.9h-39.4v67.9c0,2.1,0.3,22.2,10.4,42.4c14.2,28.7,41.5,44.4,76.7,44.4c35.3,0,62.2-16,76.7-44.4
                c10.1-20.1,10.4-40.3,10.4-42.4v-67.9h-39.4V237.4z"/>
            <path class="st6" d="M598.4,205.9c-15.1-7.1-29.9-7.1-31.4-7.1c-13.6,0-26.7-8-26.7-23.4c0-17.2,12.1-25.8,26.7-25.8
                c13.9,0,25.5,7.1,26.1,22.2c0,0.9,1.5,2.1,3,2.1h33.5c1.8,0,3-1.2,3-2.1c-0.6-36.1-29-60.7-65.5-60.7c-34.1,0-66.4,24.3-66.4,64.3
                c0,24.9,12.4,43.5,34.7,53.9c15.4,7.1,29.9,7.1,31.7,7.1c12.1,0.6,26.7,10.1,26.7,25.8c0,14.2-12.4,23.7-26.7,23.7
                c-13.6,0-26.1-7.7-26.7-22.8c0-1.2-1.5-2.4-3-2.4h-33.8c-1.8,0-3,1.2-3,2.4c0.6,39.1,29.6,60.4,66.4,61.3
                c34.1,0,66.1-22.2,66.1-62.2C633,237.4,620.9,216.3,598.4,205.9"/>
            <path class="st6" d="M806.9,283h-98.4v-46.8H790c1.5,0,2.7-1.2,2.7-2.4v-32.9c0-1.2-1.2-2.4-2.7-2.4h-81.5v-46.8h95.7
                c1.8,0,3-1.2,3-2.4v-32.9c0-1.2-1.2-2.4-3-2.4H671.8c-1.8,0-3,1.2-3,2.4v202.6c0,1.2,1.2,2.4,3,2.4h135.1c1.8,0,3-1.2,3-2.4v-33.8
                C809.9,284.2,808.7,283,806.9,283"/>
            <path class="st6" d="M464.7,150c0,1.2-1.2,2.4-3,2.4H291.2c-1.8,0-3-1.2-3-2.4v-33.5c0-1.2,1.2-2.4,3-2.4h170.6c1.8,0,3,1.2,3,2.4
                V150z"/>
            <path class="st7" d="M224.3,97.7H190c-0.9,0-2.4,0.9-2.7,1.5l-71.1,152.3L41.9,99.2c-0.3-0.6-1.8-1.5-2.7-1.5H4.5
                c-1.8,0-2.7,1.2-2.7,2.4V303c0,1.2,0.9,2.4,2.7,2.4h34.1c1.8,0,3-1.2,3-2.4V186.6l56.3,109c0.3,0.6,1.8,1.5,2.7,1.5h32
                c0.6,0,2.1-0.9,2.4-1.5l52.7-106.3V303c0,1.2,1.2,2.4,3,2.4h33.8c1.8,0,3-1.2,3-2.4V100.1C227.3,98.9,226.1,97.7,224.3,97.7"/>
            <path class="st7" d="M408,221.2c0,0.3-0.3,13.6-6.8,26.1c-8,15.1-21.3,22.5-40.9,22.5s-32.9-7.4-40.9-22.5
                c-6.5-12.4-6.8-25.8-6.8-25.8v-67.9h-39.4v67.9c0,2.1,0.3,22.2,10.4,42.4c14.2,28.7,41.5,44.4,76.7,44.4c35.3,0,62.2-16,76.7-44.4
                c10.1-20.1,10.4-40.3,10.4-42.4v-67.9H408V221.2z"/>
            <path class="st7" d="M582.5,189.8c-15.1-7.1-29.9-7.1-31.4-7.1c-13.6,0-26.7-8-26.7-23.4c0-17.2,12.1-25.8,26.7-25.8
                c13.9,0,25.5,7.1,26.1,22.2c0,0.9,1.5,2.1,3,2.1h33.5c1.8,0,3-1.2,3-2.1c-0.6-36.1-29-60.7-65.5-60.7c-34.1,0-66.3,24.3-66.3,64.3
                c0,24.9,12.4,43.5,34.6,53.9c15.4,7.1,29.9,7.1,31.7,7.1c12.1,0.6,26.7,10.1,26.7,25.8c0,14.2-12.4,23.7-26.7,23.7
                c-13.6,0-26.1-7.7-26.7-22.8c0-1.2-1.5-2.4-3-2.4h-33.8c-1.8,0-3,1.2-3,2.4c0.6,39.1,29.6,60.4,66.3,61.3
                c34.1,0,66.1-22.2,66.1-62.2C617.2,221.2,605,200.2,582.5,189.8"/>
            <path class="st7" d="M791.1,266.9h-98.4v-46.8h81.5c1.5,0,2.7-1.2,2.7-2.4v-32.9c0-1.2-1.2-2.4-2.7-2.4h-81.5v-46.8h95.7
                c1.8,0,3-1.2,3-2.4v-32.9c0-1.2-1.2-2.4-3-2.4H656c-1.8,0-3,1.2-3,2.4V303c0,1.2,1.2,2.4,3,2.4h135.1c1.8,0,3-1.2,3-2.4v-33.8
                C794,268,792.8,266.9,791.1,266.9"/>
            <path class="st7" d="M448.9,133.9c0,1.2-1.2,2.4-3,2.4H275.3c-1.8,0-3-1.2-3-2.4v-33.5c0-1.2,1.2-2.4,3-2.4h170.6
                c1.8,0,3,1.2,3,2.4V133.9z"/>
        </g>        
   </svg>
